<svg id="youtube-color" xmlns="http://www.w3.org/2000/svg" xmlns:xlink="http://www.w3.org/1999/xlink" viewBox="0 0 32 32">
  <defs>
    <path id="youtube-a" d="M13.5171507,19.3004116 L13.516047,12.7045366 L19.997456,16.0139651 L13.5171507,19.3004116 Z M27.7475538,11.5618874 C27.7475538,11.5618874 27.5131898,9.94419736 26.7939413,9.23181988 C25.8818004,8.29683736 24.8593816,8.29219496 24.3905127,8.23747448 C21.0338708,8 15.9987319,8 15.9987319,8 L15.9883053,8 C15.9883053,8 10.9532838,8 7.59652446,8.23747448 C7.12763209,8.29219496 6.10558904,8.29683736 5.19311937,9.23181988 C4.47391781,9.94419736 4.23988258,11.5618874 4.23988258,11.5618874 C4.23988258,11.5618874 4,13.4615913 4,15.3612723 L4,17.1422275 C4,19.0418854 4.23988258,20.9415664 4.23988258,20.9415664 C4.23988258,20.9415664 4.47391781,22.5592794 5.19311937,23.2716569 C6.10558904,24.2066394 7.30418004,24.1770614 7.8380274,24.2750803 C9.75701761,24.4551683 15.9935421,24.5109 15.9935421,24.5109 C15.9935421,24.5109 21.0338708,24.5034768 24.3905127,24.2660023 C24.8593816,24.2112818 25.8818004,24.2066394 26.7939413,23.2716569 C27.5131898,22.5592794 27.7475538,20.9415664 27.7475538,20.9415664 C27.7475538,20.9415664 27.9870841,19.0418854 27.9870841,17.1422275 L27.9870841,15.3612723 C27.9870841,13.4615913 27.7475538,11.5618874 27.7475538,11.5618874 L27.7475538,11.5618874 Z"/>
  </defs>
  <g fill="none" fill-rule="evenodd">
    <polygon fill="#E7E7E7" points="19.199 16.442 13.516 12.728 19.997 16.037"/>
    <use fill="#CD201F" xlink:href="#youtube-a"/>
  </g>
</svg>
